# xmcd
#
# Track frame offsets:
# 150
# 12870
# 28939
# 43817
# 58379
# 84670
# 99747
# 115634
# 128338
# 141463
#
# Disc length: 2494 seconds
#
#
# Revision: 4
# Processed by: cddbd v1.5.1PL0 Copyright (c) Steve Scherf et al.
# Submitted via: FreeRIP 2.90 
#
DISCID=8909bc0a
DTITLE=The Great Divide - Afterglow
DYEAR=1900
DGENRE=
TTITLE0=Days Go
TTITLE1=Out of Here Tonight
TTITLE2=Straight Off Into You
TTITLE3=Wild Horses
TTITLE4=Wildflower
TTITLE5=Ain't About to Fall
TTITLE6=Afterglow
TTITLE7=Hang On Cowboy
TTITLE8=Blue Skyes
TTITLE9=Floods
EXTD=
EXTT0=
EXTT1=
EXTT2=
EXTT3=
EXTT4=
EXTT5=
EXTT6=
EXTT7=
EXTT8=
EXTT9=
PLAYORDER=
